<?xml version="1.0" encoding="UTF-8" standalone="no"?>
<!-- Created with Inkscape (http://www.inkscape.org/) -->

<svg
   xmlns:dc="http://purl.org/dc/elements/1.1/"
   xmlns:cc="http://creativecommons.org/ns#"
   xmlns:rdf="http://www.w3.org/1999/02/22-rdf-syntax-ns#"
   xmlns:svg="http://www.w3.org/2000/svg"
   xmlns="http://www.w3.org/2000/svg"
   xmlns:sodipodi="http://sodipodi.sourceforge.net/DTD/sodipodi-0.dtd"
   xmlns:inkscape="http://www.inkscape.org/namespaces/inkscape"
   width="128"
   height="128"
   id="svg3821"
   version="1.1"
   inkscape:version="0.48.1 r9760"
   inkscape:export-filename="/home/karora/projects/acal/res/drawable/completed.png"
   inkscape:export-xdpi="45"
   inkscape:export-ydpi="45"
   sodipodi:docname="completed.svg"
   enable-background="new">
  <defs
     id="defs3823">
    <filter
       inkscape:collect="always"
       id="filter3776">
      <feBlend
         inkscape:collect="always"
         mode="screen"
         in2="BackgroundImage"
         id="feBlend3778" />
    </filter>
  </defs>
  <sodipodi:namedview
     id="base"
     pagecolor="#000000"
     bordercolor="#666666"
     borderopacity="1.0"
     inkscape:pageopacity="0"
     inkscape:pageshadow="2"
     inkscape:zoom="6.7590244"
     inkscape:cx="48.317263"
     inkscape:cy="64"
     inkscape:current-layer="layer2"
     showgrid="true"
     inkscape:document-units="px"
     inkscape:grid-bbox="true"
     inkscape:window-width="1859"
     inkscape:window-height="1023"
     inkscape:window-x="61"
     inkscape:window-y="0"
     inkscape:window-maximized="1" />
  <metadata
     id="metadata3826">
    <rdf:RDF>
      <cc:Work
         rdf:about="">
        <dc:format>image/svg+xml</dc:format>
        <dc:type
           rdf:resource="http://purl.org/dc/dcmitype/StillImage" />
        <dc:title></dc:title>
      </cc:Work>
    </rdf:RDF>
  </metadata>
  <g
     id="layer1"
     inkscape:label="Layer 1"
     inkscape:groupmode="layer"
     transform="translate(0,64)"
     style="filter:url(#filter3776)" />
  <g
     inkscape:groupmode="layer"
     id="layer2"
     inkscape:label="Tick"
     style="display:inline">
    <path
       transform="translate(0,64)"
       style="fill:#ffffff;fill-opacity:1;fill-rule:evenodd;stroke:#ff0101;stroke-width:0.02;stroke-linecap:round;stroke-linejoin:round;stroke-miterlimit:4;stroke-opacity:1;stroke-dasharray:none;filter:url(#filter3776)"
       d="M 58.848398,48.601427 C 50.987704,48.665493 47.628052,37.254766 38.651287,26.045597 31.082877,16.595023 16.17193,5.1515195 17.680223,2.1346233 c 1.508293,-3.01689617 10.734441,1.68912 19.934966,9.0529877 9.029976,7.227364 15.723368,14.635397 18.942777,14.321754 C 59.777375,25.195722 65.917048,7.4604662 75.366447,-7.1988356 88.253169,-27.190621 107.28693,-46.631136 109.0255,-43.928896 110.76407,-41.226656 96.46293,-25.338842 81.734551,3.4366807 71.684017,23.072879 66.709092,48.537361 58.848398,48.601427 z M 0,-64 c 42.666667,0 85.333333,0 128,0 0,42.666667 0,85.333333 0,128 C 85.333333,64 42.666667,64 0,64 0,21.333333 0,-21.333333 0,-64 z"
       id="path2985-0"
       inkscape:connector-curvature="0"
       sodipodi:nodetypes="zszszszszccccc" />
  </g>
</svg>
